<svg width="574" height="57" viewBox="0 0 574 57" fill="none" xmlns="http://www.w3.org/2000/svg">
<path d="M0.0800004 56V1.12H43.92V10.88H12.08V23.12H40.24V32.8H12.08V46.16H44.4V56H0.0800004ZM76.0494 56.96C72.8494 56.96 69.8094 56.64 66.9294 56C64.0494 55.36 61.4894 54.3467 59.2494 52.96C57.0627 51.52 55.3294 49.7333 54.0494 47.6C52.8227 45.4133 52.2094 42.7733 52.2094 39.68C52.2094 39.4133 52.2094 39.1467 52.2094 38.88C52.2094 38.56 52.236 38.32 52.2894 38.16H64.1294C64.076 38.32 64.0494 38.5333 64.0494 38.8C64.0494 39.0667 64.0494 39.3067 64.0494 39.52C64.0494 41.2267 64.5027 42.6667 65.4094 43.84C66.3694 45.0133 67.756 45.8933 69.5694 46.48C71.3827 47.0667 73.4894 47.36 75.8894 47.36C77.436 47.36 78.796 47.28 79.9694 47.12C81.196 46.9067 82.2627 46.64 83.1694 46.32C84.1294 45.9467 84.9027 45.52 85.4894 45.04C86.1294 44.56 86.5827 44 86.8494 43.36C87.1694 42.72 87.3294 42 87.3294 41.2C87.3294 39.76 86.8494 38.5867 85.8894 37.68C84.9827 36.7733 83.7027 36 82.0494 35.36C80.4494 34.72 78.636 34.1333 76.6094 33.6C74.5827 33.0667 72.5027 32.5333 70.3694 32C68.236 31.4133 66.156 30.72 64.1294 29.92C62.1027 29.0667 60.2894 28.0533 58.6894 26.88C57.0894 25.7067 55.8094 24.2133 54.8494 22.4C53.8894 20.5867 53.4094 18.4 53.4094 15.84C53.4094 13.12 53.9694 10.7733 55.0894 8.8C56.2627 6.82666 57.8894 5.2 59.9694 3.92C62.0494 2.64 64.4494 1.70666 67.1694 1.12C69.8894 0.479998 72.8494 0.159999 76.0494 0.159999C79.036 0.159999 81.8627 0.479998 84.5294 1.12C87.196 1.70666 89.5427 2.66667 91.5694 4C93.596 5.33333 95.1694 7.01333 96.2894 9.04C97.4627 11.0667 98.0494 13.4667 98.0494 16.24V17.2H86.4494V16.56C86.4494 15.12 86.0227 13.8933 85.1694 12.88C84.316 11.8667 83.116 11.0667 81.5694 10.48C80.0227 9.89333 78.2094 9.6 76.1294 9.6C73.8894 9.6 71.9694 9.81333 70.3694 10.24C68.8227 10.6667 67.6227 11.3067 66.7694 12.16C65.9694 12.96 65.5694 13.92 65.5694 15.04C65.5694 16.32 66.0227 17.3867 66.9294 18.24C67.8894 19.04 69.1694 19.76 70.7694 20.4C72.4227 20.9867 74.2627 21.52 76.2894 22C78.316 22.48 80.396 23.0133 82.5294 23.6C84.6627 24.1867 86.7427 24.88 88.7694 25.68C90.796 26.48 92.6094 27.4933 94.2094 28.72C95.8094 29.8933 97.0894 31.36 98.0494 33.12C99.0094 34.88 99.4894 36.9867 99.4894 39.44C99.4894 43.6533 98.476 47.04 96.4494 49.6C94.4227 52.16 91.6494 54.0267 88.1294 55.2C84.6094 56.3733 80.5827 56.96 76.0494 56.96ZM122.506 56V11.12H104.906V1.12H152.186V11.12H134.506V56H122.506ZM183.996 56.96C178.983 56.96 174.663 56.16 171.036 54.56C167.463 52.96 164.716 50.56 162.796 47.36C160.876 44.1067 159.916 40.08 159.916 35.28V1.12H171.916V34.96C171.916 38.9067 172.956 41.9467 175.036 44.08C177.116 46.16 180.103 47.2 183.996 47.2C187.89 47.2 190.876 46.16 192.956 44.08C195.09 41.9467 196.156 38.9067 196.156 34.96V1.12H208.156V35.28C208.156 40.08 207.196 44.1067 205.276 47.36C203.356 50.56 200.583 52.96 196.956 54.56C193.383 56.16 189.063 56.96 183.996 56.96ZM220.08 56V1.12H242.48C248.187 1.12 253.04 2.10666 257.04 4.08C261.04 6.05333 264.107 9.06666 266.24 13.12C268.427 17.12 269.52 22.2667 269.52 28.56C269.52 34.8 268.427 39.9467 266.24 44C264.107 48.0533 261.04 51.0667 257.04 53.04C253.04 55.0133 248.187 56 242.48 56H220.08ZM232 46.16H242.4C244.8 46.16 246.933 45.8133 248.8 45.12C250.667 44.4267 252.213 43.4133 253.44 42.08C254.667 40.6933 255.6 38.9867 256.24 36.96C256.88 34.88 257.2 32.48 257.2 29.76V27.36C257.2 24.64 256.88 22.2667 256.24 20.24C255.6 18.16 254.667 16.4533 253.44 15.12C252.213 13.7333 250.667 12.6933 248.8 12C246.933 11.2533 244.8 10.88 242.4 10.88H232V46.16ZM304.821 56.96C299.007 56.96 293.994 55.92 289.781 53.84C285.567 51.76 282.341 48.6133 280.101 44.4C277.861 40.1867 276.741 34.9067 276.741 28.56C276.741 22.1067 277.861 16.8 280.101 12.64C282.341 8.42666 285.567 5.30666 289.781 3.28C293.994 1.2 299.007 0.159999 304.821 0.159999C310.741 0.159999 315.781 1.2 319.941 3.28C324.154 5.30666 327.381 8.42666 329.621 12.64C331.861 16.8 332.981 22.1067 332.981 28.56C332.981 34.9067 331.861 40.1867 329.621 44.4C327.381 48.6133 324.154 51.76 319.941 53.84C315.781 55.92 310.741 56.96 304.821 56.96ZM304.821 47.2C307.434 47.2 309.727 46.8267 311.701 46.08C313.674 45.3333 315.327 44.2133 316.661 42.72C317.994 41.2267 319.007 39.4133 319.701 37.28C320.394 35.0933 320.741 32.6133 320.741 29.84V27.36C320.741 24.5333 320.394 22.0267 319.701 19.84C319.007 17.6533 317.994 15.84 316.661 14.4C315.327 12.9067 313.674 11.7867 311.701 11.04C309.727 10.2933 307.434 9.92 304.821 9.92C302.261 9.92 299.994 10.2933 298.021 11.04C296.047 11.7867 294.394 12.9067 293.061 14.4C291.727 15.84 290.714 17.6533 290.021 19.84C289.381 22.0267 289.061 24.5333 289.061 27.36V29.84C289.061 32.6133 289.381 35.0933 290.021 37.28C290.714 39.4133 291.727 41.2267 293.061 42.72C294.394 44.2133 296.047 45.3333 298.021 46.08C299.994 46.8267 302.261 47.2 304.821 47.2ZM364.018 56.96C360.818 56.96 357.778 56.64 354.898 56C352.018 55.36 349.458 54.3467 347.218 52.96C345.031 51.52 343.298 49.7333 342.018 47.6C340.791 45.4133 340.178 42.7733 340.178 39.68C340.178 39.4133 340.178 39.1467 340.178 38.88C340.178 38.56 340.205 38.32 340.258 38.16H352.098C352.045 38.32 352.018 38.5333 352.018 38.8C352.018 39.0667 352.018 39.3067 352.018 39.52C352.018 41.2267 352.471 42.6667 353.378 43.84C354.338 45.0133 355.725 45.8933 357.538 46.48C359.351 47.0667 361.458 47.36 363.858 47.36C365.405 47.36 366.765 47.28 367.938 47.12C369.165 46.9067 370.231 46.64 371.138 46.32C372.098 45.9467 372.871 45.52 373.458 45.04C374.098 44.56 374.551 44 374.818 43.36C375.138 42.72 375.298 42 375.298 41.2C375.298 39.76 374.818 38.5867 373.858 37.68C372.951 36.7733 371.671 36 370.018 35.36C368.418 34.72 366.605 34.1333 364.578 33.6C362.551 33.0667 360.471 32.5333 358.338 32C356.205 31.4133 354.125 30.72 352.098 29.92C350.071 29.0667 348.258 28.0533 346.658 26.88C345.058 25.7067 343.778 24.2133 342.818 22.4C341.858 20.5867 341.378 18.4 341.378 15.84C341.378 13.12 341.938 10.7733 343.058 8.8C344.231 6.82666 345.858 5.2 347.938 3.92C350.018 2.64 352.418 1.70666 355.138 1.12C357.858 0.479998 360.818 0.159999 364.018 0.159999C367.005 0.159999 369.831 0.479998 372.498 1.12C375.165 1.70666 377.511 2.66667 379.538 4C381.565 5.33333 383.138 7.01333 384.258 9.04C385.431 11.0667 386.018 13.4667 386.018 16.24V17.2H374.418V16.56C374.418 15.12 373.991 13.8933 373.138 12.88C372.285 11.8667 371.085 11.0667 369.538 10.48C367.991 9.89333 366.178 9.6 364.098 9.6C361.858 9.6 359.938 9.81333 358.338 10.24C356.791 10.6667 355.591 11.3067 354.738 12.16C353.938 12.96 353.538 13.92 353.538 15.04C353.538 16.32 353.991 17.3867 354.898 18.24C355.858 19.04 357.138 19.76 358.738 20.4C360.391 20.9867 362.231 21.52 364.258 22C366.285 22.48 368.365 23.0133 370.498 23.6C372.631 24.1867 374.711 24.88 376.738 25.68C378.765 26.48 380.578 27.4933 382.178 28.72C383.778 29.8933 385.058 31.36 386.018 33.12C386.978 34.88 387.458 36.9867 387.458 39.44C387.458 43.6533 386.445 47.04 384.418 49.6C382.391 52.16 379.618 54.0267 376.098 55.2C372.578 56.3733 368.551 56.96 364.018 56.96ZM436.418 56.96C431.405 56.96 427.085 56.16 423.458 54.56C419.885 52.96 417.138 50.56 415.218 47.36C413.298 44.1067 412.338 40.08 412.338 35.28V1.12H424.338V34.96C424.338 38.9067 425.378 41.9467 427.458 44.08C429.538 46.16 432.525 47.2 436.418 47.2C440.311 47.2 443.298 46.16 445.378 44.08C447.511 41.9467 448.578 38.9067 448.578 34.96V1.12H460.578V35.28C460.578 40.08 459.618 44.1067 457.698 47.36C455.778 50.56 453.005 52.96 449.378 54.56C445.805 56.16 441.485 56.96 436.418 56.96ZM493.862 56.96C490.662 56.96 487.622 56.64 484.742 56C481.862 55.36 479.302 54.3467 477.062 52.96C474.875 51.52 473.142 49.7333 471.862 47.6C470.635 45.4133 470.022 42.7733 470.022 39.68C470.022 39.4133 470.022 39.1467 470.022 38.88C470.022 38.56 470.049 38.32 470.102 38.16H481.942C481.889 38.32 481.862 38.5333 481.862 38.8C481.862 39.0667 481.862 39.3067 481.862 39.52C481.862 41.2267 482.315 42.6667 483.222 43.84C484.182 45.0133 485.569 45.8933 487.382 46.48C489.195 47.0667 491.302 47.36 493.702 47.36C495.249 47.36 496.609 47.28 497.782 47.12C499.009 46.9067 500.075 46.64 500.982 46.32C501.942 45.9467 502.715 45.52 503.302 45.04C503.942 44.56 504.395 44 504.662 43.36C504.982 42.72 505.142 42 505.142 41.2C505.142 39.76 504.662 38.5867 503.702 37.68C502.795 36.7733 501.515 36 499.862 35.36C498.262 34.72 496.449 34.1333 494.422 33.6C492.395 33.0667 490.315 32.5333 488.182 32C486.049 31.4133 483.969 30.72 481.942 29.92C479.915 29.0667 478.102 28.0533 476.502 26.88C474.902 25.7067 473.622 24.2133 472.662 22.4C471.702 20.5867 471.222 18.4 471.222 15.84C471.222 13.12 471.782 10.7733 472.902 8.8C474.075 6.82666 475.702 5.2 477.782 3.92C479.862 2.64 482.262 1.70666 484.982 1.12C487.702 0.479998 490.662 0.159999 493.862 0.159999C496.849 0.159999 499.675 0.479998 502.342 1.12C505.009 1.70666 507.355 2.66667 509.382 4C511.409 5.33333 512.982 7.01333 514.102 9.04C515.275 11.0667 515.862 13.4667 515.862 16.24V17.2H504.262V16.56C504.262 15.12 503.835 13.8933 502.982 12.88C502.129 11.8667 500.929 11.0667 499.382 10.48C497.835 9.89333 496.022 9.6 493.942 9.6C491.702 9.6 489.782 9.81333 488.182 10.24C486.635 10.6667 485.435 11.3067 484.582 12.16C483.782 12.96 483.382 13.92 483.382 15.04C483.382 16.32 483.835 17.3867 484.742 18.24C485.702 19.04 486.982 19.76 488.582 20.4C490.235 20.9867 492.075 21.52 494.102 22C496.129 22.48 498.209 23.0133 500.342 23.6C502.475 24.1867 504.555 24.88 506.582 25.68C508.609 26.48 510.422 27.4933 512.022 28.72C513.622 29.8933 514.902 31.36 515.862 33.12C516.822 34.88 517.302 36.9867 517.302 39.44C517.302 43.6533 516.289 47.04 514.262 49.6C512.235 52.16 509.462 54.0267 505.942 55.2C502.422 56.3733 498.395 56.96 493.862 56.96ZM526.799 56V1.12H555.359C559.305 1.12 562.585 1.86666 565.199 3.36C567.865 4.8 569.865 6.85333 571.199 9.52C572.585 12.1333 573.279 15.2533 573.279 18.88C573.279 22.5067 572.559 25.68 571.119 28.4C569.732 31.0667 567.679 33.1467 564.959 34.64C562.239 36.1333 558.905 36.88 554.959 36.88H538.719V56H526.799ZM538.719 27.12H553.359C555.865 27.12 557.785 26.4 559.119 24.96C560.505 23.52 561.199 21.52 561.199 18.96C561.199 17.2 560.905 15.7333 560.319 14.56C559.732 13.3867 558.852 12.48 557.679 11.84C556.559 11.2 555.119 10.88 553.359 10.88H538.719V27.12Z" fill="white"/>
</svg>
